<svg xmlns="http://www.w3.org/2000/svg" xmlns:xlink="http://www.w3.org/1999/xlink" width="500" zoomAndPan="magnify" viewBox="0 0 375 374.999991" height="500" preserveAspectRatio="xMidYMid meet" version="1.0"><defs><g/><clipPath id="3cc99c6f14"><path d="M 228 338 L 229 338 L 229 339 L 228 339 Z M 228 338 " clip-rule="nonzero"/></clipPath><clipPath id="1a7aba1998"><path d="M 20.886719 83.554688 L 266.59375 9.933594 L 353.992188 301.621094 L 108.28125 375.242188 Z M 20.886719 83.554688 " clip-rule="nonzero"/></clipPath><clipPath id="59519b3ef4"><path d="M 20.886719 83.554688 L 266.59375 9.933594 L 353.992188 301.621094 L 108.28125 375.242188 Z M 20.886719 83.554688 " clip-rule="nonzero"/></clipPath><clipPath id="53bfb986e7"><path d="M 20.886719 83.554688 L 266.59375 9.933594 L 353.992188 301.621094 L 108.28125 375.242188 Z M 20.886719 83.554688 " clip-rule="nonzero"/></clipPath><clipPath id="6e7cad8949"><path d="M 282 271 L 283 271 L 283 272 L 282 272 Z M 282 271 " clip-rule="nonzero"/></clipPath><clipPath id="83b7d06280"><path d="M 20.886719 83.554688 L 266.59375 9.933594 L 353.992188 301.621094 L 108.28125 375.242188 Z M 20.886719 83.554688 " clip-rule="nonzero"/></clipPath><clipPath id="df45953cb8"><path d="M 20.886719 83.554688 L 266.59375 9.933594 L 353.992188 301.621094 L 108.28125 375.242188 Z M 20.886719 83.554688 " clip-rule="nonzero"/></clipPath><clipPath id="d1838fa801"><path d="M 20.886719 83.554688 L 266.59375 9.933594 L 353.992188 301.621094 L 108.28125 375.242188 Z M 20.886719 83.554688 " clip-rule="nonzero"/></clipPath><clipPath id="3529638c65"><path d="M 233 114 L 234 114 L 234 115 L 233 115 Z M 233 114 " clip-rule="nonzero"/></clipPath><clipPath id="35afe8b6e0"><path d="M 20.886719 83.554688 L 266.59375 9.933594 L 353.992188 301.621094 L 108.28125 375.242188 Z M 20.886719 83.554688 " clip-rule="nonzero"/></clipPath><clipPath id="dff5241dfb"><path d="M 20.886719 83.554688 L 266.59375 9.933594 L 353.992188 301.621094 L 108.28125 375.242188 Z M 20.886719 83.554688 " clip-rule="nonzero"/></clipPath><clipPath id="a7e2d8ed9c"><path d="M 20.886719 83.554688 L 266.59375 9.933594 L 353.992188 301.621094 L 108.28125 375.242188 Z M 20.886719 83.554688 " clip-rule="nonzero"/></clipPath><clipPath id="d311dfaaa9"><path d="M 74 15 L 289 15 L 289 347 L 74 347 Z M 74 15 " clip-rule="nonzero"/></clipPath><clipPath id="2d86bdce50"><path d="M 20.886719 83.554688 L 266.59375 9.933594 L 353.992188 301.621094 L 108.28125 375.242188 Z M 20.886719 83.554688 " clip-rule="nonzero"/></clipPath><clipPath id="0fb85f59a6"><path d="M 20.886719 83.554688 L 266.59375 9.933594 L 353.992188 301.621094 L 108.28125 375.242188 Z M 20.886719 83.554688 " clip-rule="nonzero"/></clipPath><clipPath id="29b28d4218"><path d="M 20.886719 83.554688 L 266.59375 9.933594 L 353.992188 301.621094 L 108.28125 375.242188 Z M 20.886719 83.554688 " clip-rule="nonzero"/></clipPath><clipPath id="814ab1dd4e"><path d="M 21.917969 83.382812 L 266.90625 9.972656 L 354.28125 301.574219 L 109.289062 374.980469 Z M 21.917969 83.382812 " clip-rule="nonzero"/></clipPath><clipPath id="ecff2bda32"><path d="M 21.917969 83.382812 L 266.660156 10.046875 L 353.984375 301.488281 L 109.242188 374.820312 Z M 21.917969 83.382812 " clip-rule="nonzero"/></clipPath><clipPath id="16b6c79567"><path d="M 228 299 L 271 299 L 271 339 L 228 339 Z M 228 299 " clip-rule="nonzero"/></clipPath><clipPath id="1f44287134"><path d="M 20.886719 83.554688 L 266.59375 9.933594 L 353.992188 301.621094 L 108.28125 375.242188 Z M 20.886719 83.554688 " clip-rule="nonzero"/></clipPath><clipPath id="7f72ed7138"><path d="M 20.886719 83.554688 L 266.59375 9.933594 L 353.992188 301.621094 L 108.28125 375.242188 Z M 20.886719 83.554688 " clip-rule="nonzero"/></clipPath><clipPath id="71da4dcb8b"><path d="M 20.886719 83.554688 L 266.59375 9.933594 L 353.992188 301.621094 L 108.28125 375.242188 Z M 20.886719 83.554688 " clip-rule="nonzero"/></clipPath><clipPath id="b5f6b1b56f"><path d="M 270 298 L 271 298 L 271 300 L 270 300 Z M 270 298 " clip-rule="nonzero"/></clipPath><clipPath id="94b9924416"><path d="M 20.886719 83.554688 L 266.59375 9.933594 L 353.992188 301.621094 L 108.28125 375.242188 Z M 20.886719 83.554688 " clip-rule="nonzero"/></clipPath><clipPath id="6609af355a"><path d="M 20.886719 83.554688 L 266.59375 9.933594 L 353.992188 301.621094 L 108.28125 375.242188 Z M 20.886719 83.554688 " clip-rule="nonzero"/></clipPath><clipPath id="8bc0905aad"><path d="M 20.886719 83.554688 L 266.59375 9.933594 L 353.992188 301.621094 L 108.28125 375.242188 Z M 20.886719 83.554688 " clip-rule="nonzero"/></clipPath><clipPath id="ef29b230d2"><path d="M 228 338 L 229 338 L 229 339 L 228 339 Z M 228 338 " clip-rule="nonzero"/></clipPath><clipPath id="897f1ce7a0"><path d="M 20.886719 83.554688 L 266.59375 9.933594 L 353.992188 301.621094 L 108.28125 375.242188 Z M 20.886719 83.554688 " clip-rule="nonzero"/></clipPath><clipPath id="6ce156207f"><path d="M 20.886719 83.554688 L 266.59375 9.933594 L 353.992188 301.621094 L 108.28125 375.242188 Z M 20.886719 83.554688 " clip-rule="nonzero"/></clipPath><clipPath id="9a7420df51"><path d="M 20.886719 83.554688 L 266.59375 9.933594 L 353.992188 301.621094 L 108.28125 375.242188 Z M 20.886719 83.554688 " clip-rule="nonzero"/></clipPath><clipPath id="781daeb6cc"><path d="M 242 74 L 249 74 L 249 87 L 242 87 Z M 242 74 " clip-rule="nonzero"/></clipPath><clipPath id="e09041db30"><path d="M 20.886719 83.554688 L 266.59375 9.933594 L 353.992188 301.621094 L 108.28125 375.242188 Z M 20.886719 83.554688 " clip-rule="nonzero"/></clipPath><clipPath id="a07eea33f4"><path d="M 20.886719 83.554688 L 266.59375 9.933594 L 353.992188 301.621094 L 108.28125 375.242188 Z M 20.886719 83.554688 " clip-rule="nonzero"/></clipPath><clipPath id="f928685d8b"><path d="M 20.886719 83.554688 L 266.59375 9.933594 L 353.992188 301.621094 L 108.28125 375.242188 Z M 20.886719 83.554688 " clip-rule="nonzero"/></clipPath><clipPath id="ab56d71bb5"><path d="M 244 85 L 245 85 L 245 86 L 244 86 Z M 244 85 " clip-rule="nonzero"/></clipPath><clipPath id="25540778fa"><path d="M 20.886719 83.554688 L 266.59375 9.933594 L 353.992188 301.621094 L 108.28125 375.242188 Z M 20.886719 83.554688 " clip-rule="nonzero"/></clipPath><clipPath id="04d09a58c9"><path d="M 20.886719 83.554688 L 266.59375 9.933594 L 353.992188 301.621094 L 108.28125 375.242188 Z M 20.886719 83.554688 " clip-rule="nonzero"/></clipPath><clipPath id="1f3682219f"><path d="M 20.886719 83.554688 L 266.59375 9.933594 L 353.992188 301.621094 L 108.28125 375.242188 Z M 20.886719 83.554688 " clip-rule="nonzero"/></clipPath><clipPath id="19fbc7ddbd"><path d="M 248 74 L 249 74 L 249 75 L 248 75 Z M 248 74 " clip-rule="nonzero"/></clipPath><clipPath id="3baf77064f"><path d="M 20.886719 83.554688 L 266.59375 9.933594 L 353.992188 301.621094 L 108.28125 375.242188 Z M 20.886719 83.554688 " clip-rule="nonzero"/></clipPath><clipPath id="d682953b41"><path d="M 20.886719 83.554688 L 266.59375 9.933594 L 353.992188 301.621094 L 108.28125 375.242188 Z M 20.886719 83.554688 " clip-rule="nonzero"/></clipPath><clipPath id="22bb0e643f"><path d="M 20.886719 83.554688 L 266.59375 9.933594 L 353.992188 301.621094 L 108.28125 375.242188 Z M 20.886719 83.554688 " clip-rule="nonzero"/></clipPath><clipPath id="a66f56cf63"><path d="M 242 86 L 243 86 L 243 87 L 242 87 Z M 242 86 " clip-rule="nonzero"/></clipPath><clipPath id="d91e19cd17"><path d="M 20.886719 83.554688 L 266.59375 9.933594 L 353.992188 301.621094 L 108.28125 375.242188 Z M 20.886719 83.554688 " clip-rule="nonzero"/></clipPath><clipPath id="b0a8eb3305"><path d="M 20.886719 83.554688 L 266.59375 9.933594 L 353.992188 301.621094 L 108.28125 375.242188 Z M 20.886719 83.554688 " clip-rule="nonzero"/></clipPath><clipPath id="6c7d3c1777"><path d="M 20.886719 83.554688 L 266.59375 9.933594 L 353.992188 301.621094 L 108.28125 375.242188 Z M 20.886719 83.554688 " clip-rule="nonzero"/></clipPath><clipPath id="07c26ef502"><path d="M 247 78 L 250 78 L 250 82 L 247 82 Z M 247 78 " clip-rule="nonzero"/></clipPath><clipPath id="bf9770780f"><path d="M 20.886719 83.554688 L 266.59375 9.933594 L 353.992188 301.621094 L 108.28125 375.242188 Z M 20.886719 83.554688 " clip-rule="nonzero"/></clipPath><clipPath id="ef146d3fb0"><path d="M 20.886719 83.554688 L 266.59375 9.933594 L 353.992188 301.621094 L 108.28125 375.242188 Z M 20.886719 83.554688 " clip-rule="nonzero"/></clipPath><clipPath id="95c5773cfa"><path d="M 20.886719 83.554688 L 266.59375 9.933594 L 353.992188 301.621094 L 108.28125 375.242188 Z M 20.886719 83.554688 " clip-rule="nonzero"/></clipPath><clipPath id="788add6eee"><path d="M 233 114 L 234 114 L 234 115 L 233 115 Z M 233 114 " clip-rule="nonzero"/></clipPath><clipPath id="f3b035ea4e"><path d="M 20.886719 83.554688 L 266.59375 9.933594 L 353.992188 301.621094 L 108.28125 375.242188 Z M 20.886719 83.554688 " clip-rule="nonzero"/></clipPath><clipPath id="c1392a7e07"><path d="M 20.886719 83.554688 L 266.59375 9.933594 L 353.992188 301.621094 L 108.28125 375.242188 Z M 20.886719 83.554688 " clip-rule="nonzero"/></clipPath><clipPath id="ff92b22f4b"><path d="M 20.886719 83.554688 L 266.59375 9.933594 L 353.992188 301.621094 L 108.28125 375.242188 Z M 20.886719 83.554688 " clip-rule="nonzero"/></clipPath><clipPath id="9bbc962eec"><path d="M 233 113 L 236 113 L 236 116 L 233 116 Z M 233 113 " clip-rule="nonzero"/></clipPath><clipPath id="34bd53550b"><path d="M 20.886719 83.554688 L 266.59375 9.933594 L 353.992188 301.621094 L 108.28125 375.242188 Z M 20.886719 83.554688 " clip-rule="nonzero"/></clipPath><clipPath id="ac0b12825e"><path d="M 20.886719 83.554688 L 266.59375 9.933594 L 353.992188 301.621094 L 108.28125 375.242188 Z M 20.886719 83.554688 " clip-rule="nonzero"/></clipPath><clipPath id="29d0a253af"><path d="M 20.886719 83.554688 L 266.59375 9.933594 L 353.992188 301.621094 L 108.28125 375.242188 Z M 20.886719 83.554688 " clip-rule="nonzero"/></clipPath><clipPath id="990436cb3f"><path d="M 92 302 L 94 302 L 94 305 L 92 305 Z M 92 302 " clip-rule="nonzero"/></clipPath><clipPath id="74bf710ad2"><path d="M 20.886719 83.554688 L 266.59375 9.933594 L 353.992188 301.621094 L 108.28125 375.242188 Z M 20.886719 83.554688 " clip-rule="nonzero"/></clipPath><clipPath id="9b0ba68e6b"><path d="M 20.886719 83.554688 L 266.59375 9.933594 L 353.992188 301.621094 L 108.28125 375.242188 Z M 20.886719 83.554688 " clip-rule="nonzero"/></clipPath><clipPath id="288c17eaaf"><path d="M 20.886719 83.554688 L 266.59375 9.933594 L 353.992188 301.621094 L 108.28125 375.242188 Z M 20.886719 83.554688 " clip-rule="nonzero"/></clipPath><clipPath id="d81a272248"><path d="M 92 302 L 93 302 L 93 303 L 92 303 Z M 92 302 " clip-rule="nonzero"/></clipPath><clipPath id="ec06ca9458"><path d="M 20.886719 83.554688 L 266.59375 9.933594 L 353.992188 301.621094 L 108.28125 375.242188 Z M 20.886719 83.554688 " clip-rule="nonzero"/></clipPath><clipPath id="1a4a74278a"><path d="M 20.886719 83.554688 L 266.59375 9.933594 L 353.992188 301.621094 L 108.28125 375.242188 Z M 20.886719 83.554688 " clip-rule="nonzero"/></clipPath><clipPath id="227cf6d458"><path d="M 20.886719 83.554688 L 266.59375 9.933594 L 353.992188 301.621094 L 108.28125 375.242188 Z M 20.886719 83.554688 " clip-rule="nonzero"/></clipPath><clipPath id="2b377ec76f"><path d="M 282 268 L 284 268 L 284 272 L 282 272 Z M 282 268 " clip-rule="nonzero"/></clipPath><clipPath id="f51670a668"><path d="M 20.886719 83.554688 L 266.59375 9.933594 L 353.992188 301.621094 L 108.28125 375.242188 Z M 20.886719 83.554688 " clip-rule="nonzero"/></clipPath><clipPath id="ea936074dd"><path d="M 20.886719 83.554688 L 266.59375 9.933594 L 353.992188 301.621094 L 108.28125 375.242188 Z M 20.886719 83.554688 " clip-rule="nonzero"/></clipPath><clipPath id="5427dbcd0f"><path d="M 20.886719 83.554688 L 266.59375 9.933594 L 353.992188 301.621094 L 108.28125 375.242188 Z M 20.886719 83.554688 " clip-rule="nonzero"/></clipPath><clipPath id="35840bdca6"><path d="M 283 268 L 284 268 L 284 269 L 283 269 Z M 283 268 " clip-rule="nonzero"/></clipPath><clipPath id="d7d9e3f0c7"><path d="M 20.886719 83.554688 L 266.59375 9.933594 L 353.992188 301.621094 L 108.28125 375.242188 Z M 20.886719 83.554688 " clip-rule="nonzero"/></clipPath><clipPath id="b5fa2d5164"><path d="M 20.886719 83.554688 L 266.59375 9.933594 L 353.992188 301.621094 L 108.28125 375.242188 Z M 20.886719 83.554688 " clip-rule="nonzero"/></clipPath><clipPath id="d70d1361a2"><path d="M 20.886719 83.554688 L 266.59375 9.933594 L 353.992188 301.621094 L 108.28125 375.242188 Z M 20.886719 83.554688 " clip-rule="nonzero"/></clipPath><clipPath id="16c1a134fb"><path d="M 246 83 L 248 83 L 248 85 L 246 85 Z M 246 83 " clip-rule="nonzero"/></clipPath><clipPath id="e80db2b0d6"><path d="M 20.886719 83.554688 L 266.59375 9.933594 L 353.992188 301.621094 L 108.28125 375.242188 Z M 20.886719 83.554688 " clip-rule="nonzero"/></clipPath><clipPath id="ce5347cbde"><path d="M 20.886719 83.554688 L 266.59375 9.933594 L 353.992188 301.621094 L 108.28125 375.242188 Z M 20.886719 83.554688 " clip-rule="nonzero"/></clipPath><clipPath id="7d5ec59b4d"><path d="M 20.886719 83.554688 L 266.59375 9.933594 L 353.992188 301.621094 L 108.28125 375.242188 Z M 20.886719 83.554688 " clip-rule="nonzero"/></clipPath><clipPath id="a4fec675d1"><path d="M 248 72 L 250 72 L 250 75 L 248 75 Z M 248 72 " clip-rule="nonzero"/></clipPath><clipPath id="16e3d11e91"><path d="M 20.886719 83.554688 L 266.59375 9.933594 L 353.992188 301.621094 L 108.28125 375.242188 Z M 20.886719 83.554688 " clip-rule="nonzero"/></clipPath><clipPath id="730372ae06"><path d="M 20.886719 83.554688 L 266.59375 9.933594 L 353.992188 301.621094 L 108.28125 375.242188 Z M 20.886719 83.554688 " clip-rule="nonzero"/></clipPath><clipPath id="e65382161e"><path d="M 20.886719 83.554688 L 266.59375 9.933594 L 353.992188 301.621094 L 108.28125 375.242188 Z M 20.886719 83.554688 " clip-rule="nonzero"/></clipPath><clipPath id="68ecf76458"><path d="M 249 72 L 250 72 L 250 73 L 249 73 Z M 249 72 " clip-rule="nonzero"/></clipPath><clipPath id="5e9d955ec0"><path d="M 20.886719 83.554688 L 266.59375 9.933594 L 353.992188 301.621094 L 108.28125 375.242188 Z M 20.886719 83.554688 " clip-rule="nonzero"/></clipPath><clipPath id="336d8bab4b"><path d="M 20.886719 83.554688 L 266.59375 9.933594 L 353.992188 301.621094 L 108.28125 375.242188 Z M 20.886719 83.554688 " clip-rule="nonzero"/></clipPath><clipPath id="32d5ad4568"><path d="M 20.886719 83.554688 L 266.59375 9.933594 L 353.992188 301.621094 L 108.28125 375.242188 Z M 20.886719 83.554688 " clip-rule="nonzero"/></clipPath><clipPath id="fd0a2d8b60"><path d="M 248 74 L 249 74 L 249 75 L 248 75 Z M 248 74 " clip-rule="nonzero"/></clipPath><clipPath id="e895a2d4d3"><path d="M 20.886719 83.554688 L 266.59375 9.933594 L 353.992188 301.621094 L 108.28125 375.242188 Z M 20.886719 83.554688 " clip-rule="nonzero"/></clipPath><clipPath id="e9ef161072"><path d="M 20.886719 83.554688 L 266.59375 9.933594 L 353.992188 301.621094 L 108.28125 375.242188 Z M 20.886719 83.554688 " clip-rule="nonzero"/></clipPath><clipPath id="3df3b6e34d"><path d="M 20.886719 83.554688 L 266.59375 9.933594 L 353.992188 301.621094 L 108.28125 375.242188 Z M 20.886719 83.554688 " clip-rule="nonzero"/></clipPath><clipPath id="780afa26c6"><path d="M 242 86 L 243 86 L 243 87 L 242 87 Z M 242 86 " clip-rule="nonzero"/></clipPath><clipPath id="89a0329814"><path d="M 20.886719 83.554688 L 266.59375 9.933594 L 353.992188 301.621094 L 108.28125 375.242188 Z M 20.886719 83.554688 " clip-rule="nonzero"/></clipPath><clipPath id="c497bb3bf9"><path d="M 20.886719 83.554688 L 266.59375 9.933594 L 353.992188 301.621094 L 108.28125 375.242188 Z M 20.886719 83.554688 " clip-rule="nonzero"/></clipPath><clipPath id="a96a6d5e1c"><path d="M 20.886719 83.554688 L 266.59375 9.933594 L 353.992188 301.621094 L 108.28125 375.242188 Z M 20.886719 83.554688 " clip-rule="nonzero"/></clipPath><clipPath id="2c09980a7e"><path d="M 242 86 L 244 86 L 244 89 L 242 89 Z M 242 86 " clip-rule="nonzero"/></clipPath><clipPath id="955d90d111"><path d="M 20.886719 83.554688 L 266.59375 9.933594 L 353.992188 301.621094 L 108.28125 375.242188 Z M 20.886719 83.554688 " clip-rule="nonzero"/></clipPath><clipPath id="73fccc3662"><path d="M 20.886719 83.554688 L 266.59375 9.933594 L 353.992188 301.621094 L 108.28125 375.242188 Z M 20.886719 83.554688 " clip-rule="nonzero"/></clipPath><clipPath id="9a0fcfb451"><path d="M 20.886719 83.554688 L 266.59375 9.933594 L 353.992188 301.621094 L 108.28125 375.242188 Z M 20.886719 83.554688 " clip-rule="nonzero"/></clipPath><clipPath id="e55ea4426b"><path d="M 99 161 L 267 161 L 267 319 L 99 319 Z M 99 161 " clip-rule="nonzero"/></clipPath><clipPath id="8a0b29a273"><path d="M 20.886719 83.554688 L 266.59375 9.933594 L 353.992188 301.621094 L 108.28125 375.242188 Z M 20.886719 83.554688 " clip-rule="nonzero"/></clipPath><clipPath id="4ad71499c3"><path d="M 20.886719 83.554688 L 266.59375 9.933594 L 353.992188 301.621094 L 108.28125 375.242188 Z M 20.886719 83.554688 " clip-rule="nonzero"/></clipPath><clipPath id="8d220c5b7b"><path d="M 20.886719 83.554688 L 266.59375 9.933594 L 353.992188 301.621094 L 108.28125 375.242188 Z M 20.886719 83.554688 " clip-rule="nonzero"/></clipPath><clipPath id="39001ecd56"><path d="M 174 127 L 209 127 L 209 175 L 174 175 Z M 174 127 " clip-rule="nonzero"/></clipPath><clipPath id="23c6426af1"><path d="M 20.886719 83.554688 L 266.59375 9.933594 L 353.992188 301.621094 L 108.28125 375.242188 Z M 20.886719 83.554688 " clip-rule="nonzero"/></clipPath><clipPath id="cfc7186059"><path d="M 20.886719 83.554688 L 266.59375 9.933594 L 353.992188 301.621094 L 108.28125 375.242188 Z M 20.886719 83.554688 " clip-rule="nonzero"/></clipPath><clipPath id="d5287922d1"><path d="M 20.886719 83.554688 L 266.59375 9.933594 L 353.992188 301.621094 L 108.28125 375.242188 Z M 20.886719 83.554688 " clip-rule="nonzero"/></clipPath><clipPath id="56c65bf838"><path d="M 156 132 L 183 132 L 183 204 L 156 204 Z M 156 132 " clip-rule="nonzero"/></clipPath><clipPath id="89cd54a188"><path d="M 20.886719 83.554688 L 266.59375 9.933594 L 353.992188 301.621094 L 108.28125 375.242188 Z M 20.886719 83.554688 " clip-rule="nonzero"/></clipPath><clipPath id="fd64c3a7e5"><path d="M 20.886719 83.554688 L 266.59375 9.933594 L 353.992188 301.621094 L 108.28125 375.242188 Z M 20.886719 83.554688 " clip-rule="nonzero"/></clipPath><clipPath id="16fe9d8db6"><path d="M 20.886719 83.554688 L 266.59375 9.933594 L 353.992188 301.621094 L 108.28125 375.242188 Z M 20.886719 83.554688 " clip-rule="nonzero"/></clipPath><clipPath id="aedbe24eda"><path d="M 72 184 L 104 184 L 104 287 L 72 287 Z M 72 184 " clip-rule="nonzero"/></clipPath><clipPath id="0d90dda84d"><path d="M 20.886719 83.554688 L 266.59375 9.933594 L 353.992188 301.621094 L 108.28125 375.242188 Z M 20.886719 83.554688 " clip-rule="nonzero"/></clipPath><clipPath id="3b77619356"><path d="M 20.886719 83.554688 L 266.59375 9.933594 L 353.992188 301.621094 L 108.28125 375.242188 Z M 20.886719 83.554688 " clip-rule="nonzero"/></clipPath><clipPath id="f99b8b980d"><path d="M 20.886719 83.554688 L 266.59375 9.933594 L 353.992188 301.621094 L 108.28125 375.242188 Z M 20.886719 83.554688 " clip-rule="nonzero"/></clipPath></defs><g clip-path="url(#3cc99c6f14)"><g clip-path="url(#1a7aba1998)"><g clip-path="url(#59519b3ef4)"><g clip-path="url(#53bfb986e7)"><path fill="#000000" d="M 228.546875 338.148438 L 228.476562 338.113281 C 228.484375 338.125 228.484375 338.136719 228.492188 338.152344 C 228.511719 338.148438 228.527344 338.148438 228.546875 338.148438 " fill-opacity="1" fill-rule="nonzero"/></g></g></g></g><g clip-path="url(#6e7cad8949)"><g clip-path="url(#83b7d06280)"><g clip-path="url(#df45953cb8)"><g clip-path="url(#d1838fa801)"><path fill="#000000" d="M 282.039062 271.277344 C 282.035156 271.324219 282.03125 271.371094 282.027344 271.421875 C 282.050781 271.378906 282.074219 271.34375 282.101562 271.304688 C 282.089844 271.265625 282.089844 271.226562 282.085938 271.1875 C 282.070312 271.21875 282.054688 271.25 282.039062 271.277344 " fill-opacity="1" fill-rule="nonzero"/></g></g></g></g><g clip-path="url(#3529638c65)"><g clip-path="url(#35afe8b6e0)"><g clip-path="url(#dff5241dfb)"><g clip-path="url(#a7e2d8ed9c)"><path fill="#000000" d="M 233.445312 114.691406 C 233.425781 114.699219 233.410156 114.707031 233.394531 114.714844 C 233.398438 114.730469 233.402344 114.75 233.410156 114.769531 L 233.445312 114.691406 " fill-opacity="1" fill-rule="nonzero"/></g></g></g></g><g clip-path="url(#d311dfaaa9)"><g clip-path="url(#2d86bdce50)"><g clip-path="url(#0fb85f59a6)"><g clip-path="url(#29b28d4218)"><g clip-path="url(#814ab1dd4e)"><g clip-path="url(#ecff2bda32)"><path fill="#000000" d="M 262.789062 45.964844 C 262.570312 45.882812 262.351562 45.800781 262.132812 45.722656 C 262.445312 44.992188 262.742188 44.253906 263.078125 43.535156 C 263.230469 43.203125 263.457031 42.90625 263.652344 42.589844 C 263.800781 42.664062 263.949219 42.734375 264.09375 42.808594 C 263.660156 43.859375 263.226562 44.914062 262.789062 45.964844 Z M 237.433594 176.957031 C 233.230469 174.222656 228.589844 172.1875 224.460938 168.65625 C 230.816406 168.808594 234.207031 172.785156 237.433594 176.957031 Z M 275.34375 282.164062 C 275.523438 282.230469 275.703125 282.300781 275.886719 282.367188 C 275.578125 282.984375 275.269531 283.605469 274.960938 284.222656 C 274.824219 284.160156 274.691406 284.097656 274.554688 284.035156 C 274.816406 283.410156 275.082031 282.789062 275.34375 282.164062 Z M 268 292.949219 C 268.179688 290.777344 268.890625 288.816406 270.464844 287.21875 C 270.3125 289.417969 269.894531 291.5 268 292.949219 Z M 267.871094 293.125 C 267.449219 294.085938 267.027344 295.046875 266.605469 296.007812 C 266.480469 293.972656 266.480469 293.914062 267.871094 293.125 Z M 284.964844 248.015625 C 286.128906 248.796875 286.195312 249.929688 285.96875 250.953125 C 285.679688 252.269531 285.101562 253.519531 284.515625 255.171875 C 284.078125 252.542969 284.175781 250.316406 284.964844 248.015625 Z M 281.148438 221.394531 C 282.300781 222.25 282.675781 223.402344 282.769531 224.734375 C 282.828125 225.601562 283.152344 226.449219 283.253906 227.316406 C 283.34375 228.097656 283.1875 228.910156 283.324219 229.675781 C 283.464844 230.464844 283.96875 231.210938 284.027344 231.996094 C 284.058594 232.382812 283.453125 232.820312 283.019531 233.390625 C 282.34375 229.066406 281.746094 225.230469 281.148438 221.394531 Z M 282.398438 214.878906 C 282.339844 216.144531 282.160156 216.933594 282.316406 217.644531 C 282.46875 218.335938 282.964844 218.949219 283.503906 219.957031 C 281.425781 217.730469 281.320312 217.304688 282.398438 214.878906 Z M 280.644531 211.035156 C 280.726562 211.015625 280.804688 210.992188 280.890625 210.96875 C 281.007812 211.378906 281.125 211.789062 281.246094 212.199219 C 281.183594 212.21875 281.121094 212.238281 281.058594 212.253906 C 280.921875 211.847656 280.78125 211.441406 280.644531 211.035156 Z M 222.257812 177.46875 C 220.707031 176.980469 219.242188 176.199219 217.789062 175.457031 C 217.351562 175.230469 217.078125 174.6875 216.636719 174.183594 C 223.421875 173.339844 228.414062 175.203125 229.664062 179.367188 C 226.953125 178.683594 224.566406 178.195312 222.257812 177.46875 Z M 256.082031 314.277344 C 256.972656 311.523438 259.15625 309.578125 260.53125 307.144531 C 260.542969 310.527344 258.332031 312.414062 256.082031 314.277344 Z M 246.550781 184.535156 C 245.773438 183.875 245.261719 182.90625 244.511719 181.917969 C 249.3125 183.085938 251.042969 185.363281 251.875 187.851562 C 251.734375 187.980469 251.597656 188.109375 251.457031 188.238281 C 250.761719 187.523438 250.136719 186.707031 249.34375 186.128906 C 248.484375 185.496094 247.355469 185.214844 246.550781 184.535156 Z M 193.273438 155 C 197.671875 154.363281 201.957031 154.28125 205.683594 157.613281 C 201.140625 158.269531 197.09375 157.179688 193.273438 155 Z M 186.707031 171.828125 C 186.089844 171.972656 185.511719 172.277344 184.902344 172.472656 C 184.539062 172.589844 184.019531 172.839844 183.800781 172.691406 C 182.535156 171.824219 181.195312 171.496094 179.617188 172.199219 C 179.59375 172.011719 179.566406 171.824219 179.542969 171.636719 C 179.800781 171.417969 180.058594 171.019531 180.320312 171.015625 C 182.066406 170.992188 183.734375 170.847656 185.316406 169.925781 C 185.863281 169.605469 186.75 169.871094 187.484375 169.867188 C 187.113281 169.765625 186.746094 169.664062 186.378906 169.5625 C 186.386719 169.386719 186.398438 169.214844 186.40625 169.042969 C 186.992188 169.019531 187.578125 168.992188 188.164062 168.96875 C 188.128906 169.234375 188.09375 169.496094 188.058594 169.761719 C 188.574219 169.570312 189.082031 169.242188 189.605469 169.210938 C 191.976562 169.066406 194.359375 169.042969 196.730469 168.910156 C 200.859375 168.667969 204.722656 169.996094 208.675781 170.820312 C 210.835938 171.273438 212.910156 171.816406 214.578125 173.691406 C 213.574219 173.617188 212.34375 173.886719 211.605469 173.402344 C 209.316406 171.898438 206.726562 172.320312 204.289062 171.882812 C 202.011719 171.472656 199.703125 171.449219 197.402344 171.917969 C 196.984375 172.003906 196.507812 171.84375 195.777344 171.765625 C 196.757812 171.222656 197.457031 170.835938 198.152344 170.449219 C 198.101562 170.269531 198.046875 170.09375 198 169.914062 C 196.648438 170.019531 195.277344 170.011719 193.953125 170.253906 C 191.523438 170.695312 189.113281 171.269531 186.707031 171.828125 Z M 215.082031 329.597656 C 215.636719 329.21875 216.207031 328.832031 217.128906 328.207031 C 216.597656 329.574219 215.96875 329.839844 215.082031 329.597656 Z M 209.242188 331.667969 C 205.535156 332.792969 201.855469 334.078125 197.890625 334.023438 C 197.511719 334.019531 196.878906 334.203125 196.792969 334.453125 C 196.421875 335.5 195.582031 335.191406 194.917969 335.175781 C 193.625 335.144531 192.332031 334.675781 191.078125 335.472656 C 190.917969 335.574219 190.472656 335.179688 190.140625 335.066406 C 189.792969 334.945312 189.335938 334.695312 189.078125 334.816406 C 186.222656 336.15625 183.230469 335.398438 180.292969 335.457031 C 179.515625 335.472656 178.734375 335.480469 177.957031 335.445312 C 175.972656 335.355469 173.972656 335.390625 172.015625 335.101562 C 169.078125 334.664062 166.164062 334.058594 163.261719 333.414062 C 160.152344 332.722656 157.179688 331.65625 154.484375 329.878906 C 153.902344 329.492188 153.09375 329.4375 152.382812 329.242188 C 151.453125 328.988281 150.398438 328.949219 149.609375 328.464844 C 145.746094 326.09375 141.859375 323.734375 138.164062 321.109375 C 136.164062 319.6875 134.476562 317.796875 132.765625 316.003906 C 132.183594 315.390625 131.96875 314.429688 131.34375 313.117188 C 132.078125 313.492188 132.382812 313.613281 132.652344 313.792969 C 136.039062 316.042969 139.4375 318.28125 142.804688 320.558594 C 147.261719 323.578125 152.316406 325.199219 157.347656 326.878906 C 160.117188 327.800781 162.898438 328.683594 165.710938 329.464844 C 166.972656 329.816406 168.316406 329.886719 169.625 330.078125 C 170.855469 330.257812 172.089844 330.398438 173.3125 330.605469 C 174.609375 330.824219 175.675781 330.988281 176.988281 330.019531 C 177.894531 329.351562 179.703125 329.675781 181.058594 329.890625 C 184.222656 330.394531 187.34375 331.1875 190.507812 331.679688 C 192.074219 331.921875 193.589844 332.574219 195.34375 331.867188 C 196.292969 331.480469 197.675781 332.542969 198.777344 331.402344 C 198.921875 331.253906 199.742188 331.753906 200.25 331.953125 C 201.554688 333.410156 202.875 332.257812 204.6875 332.246094 C 203.675781 331.726562 203.171875 331.472656 202.667969 331.214844 C 206.085938 330.6875 209.503906 330.140625 212.929688 329.644531 C 213.5625 329.550781 214.222656 329.625 214.871094 329.640625 C 212.996094 330.332031 211.148438 331.085938 209.242188 331.667969 Z M 138.324219 201.09375 C 138.804688 200.992188 139.398438 201.007812 139.691406 200.71875 C 140.1875 200.226562 140.464844 199.515625 141.023438 198.992188 C 140.714844 201.613281 138.894531 203.5 137.859375 205.914062 C 137.304688 205.105469 137.304688 205.105469 138.324219 201.09375 Z M 139.203125 199.121094 C 139.367188 199.292969 139.53125 199.464844 139.695312 199.640625 C 139.214844 200.128906 138.734375 200.617188 138.257812 201.105469 C 138.125 201.144531 137.996094 201.199219 137.867188 201.183594 C 137.734375 201.171875 137.609375 201.050781 137.152344 200.792969 C 137.90625 200.175781 138.554688 199.648438 139.203125 199.121094 Z M 124.570312 327.734375 C 123.875 327.097656 123.183594 326.460938 122.339844 325.6875 C 124.402344 325.996094 124.402344 325.996094 124.570312 327.734375 Z M 103.585938 278.691406 C 102.949219 276.816406 102.308594 274.945312 101.613281 272.90625 C 102.25 272.832031 102.703125 272.777344 103.15625 272.722656 C 104.054688 274.5625 104.097656 276.539062 103.585938 278.691406 Z M 77.789062 241.328125 C 77.699219 241.308594 77.609375 241.292969 77.515625 241.273438 C 77.578125 240.847656 77.640625 240.421875 77.703125 239.992188 C 77.816406 240.054688 77.933594 240.113281 78.046875 240.175781 C 77.960938 240.558594 77.875 240.941406 77.789062 241.328125 Z M 82.863281 237.328125 C 83.027344 238.300781 83.167969 239.144531 83.308594 239.984375 C 82.015625 239.417969 82.027344 239.386719 82.863281 237.328125 Z M 271.375 25.882812 C 268.976562 21.894531 265.316406 19.324219 261.304688 17.28125 C 259.808594 16.519531 257.972656 16.359375 256.261719 16.101562 C 254.804688 15.878906 253.308594 15.910156 251.832031 15.835938 C 249.394531 15.714844 246.964844 15.664062 244.519531 16.785156 C 244.957031 17.433594 245.308594 17.953125 245.691406 18.527344 C 244.609375 20.132812 243.550781 21.710938 242.484375 23.300781 C 240.945312 23.535156 239.378906 23.777344 237.792969 24.023438 C 237.773438 23.117188 237.75 22.351562 237.730469 21.511719 C 236.308594 21.527344 235.679688 22.34375 235.261719 23.230469 C 234.5625 24.726562 233.871094 26.257812 233.441406 27.851562 C 232.234375 32.324219 231.152344 36.828125 230.039062 41.328125 C 229.304688 44.292969 228.476562 47.246094 227.902344 50.242188 C 227.117188 54.355469 225.757812 58.367188 225.679688 62.609375 C 225.671875 63.015625 225.542969 63.433594 225.398438 63.820312 C 223.25 69.519531 222.226562 75.484375 221.285156 81.464844 C 220.941406 83.644531 220.792969 85.851562 220.523438 88.308594 C 221.800781 87.929688 222.976562 88.78125 223.914062 87.5 C 223.558594 89.382812 223.070312 91.117188 222.609375 92.859375 C 222.527344 93.171875 222.523438 93.507812 222.527344 93.835938 C 222.535156 94.707031 222.757812 95.628906 222.558594 96.445312 C 221.640625 100.199219 220.617188 103.929688 219.605469 107.660156 C 219.214844 109.097656 218.75 110.519531 218.335938 111.953125 C 217.394531 115.203125 216.59375 118.5 215.484375 121.691406 C 214.207031 125.367188 212.800781 129.011719 211.1875 132.550781 C 209.621094 135.984375 207.726562 139.269531 205.996094 142.582031 C 205.359375 142.570312 204.949219 142.589844 204.542969 142.554688 C 199.9375 142.125 195.34375 141.539062 190.726562 141.300781 C 186.132812 141.058594 181.523438 140.792969 176.917969 141.582031 C 169.464844 142.859375 161.972656 143.910156 154.503906 145.125 C 151.300781 145.644531 148.101562 146.28125 144.925781 146.910156 C 141.136719 147.664062 137.453125 149.152344 134.121094 151.25 C 132.230469 152.433594 130.4375 153.761719 128.558594 154.964844 C 125.445312 156.960938 122.234375 158.816406 119.183594 160.910156 C 116.59375 162.691406 114.039062 164.578125 111.714844 166.6875 C 108.964844 169.1875 105.296875 170.890625 104.125 174.878906 C 104.082031 175.015625 103.925781 175.238281 103.839844 175.230469 C 102.453125 175.105469 102.507812 176.464844 101.886719 177.117188 C 101.210938 177.832031 100.554688 178.5625 99.867188 179.265625 C 99.136719 180.023438 98.253906 180.667969 97.664062 181.519531 C 96.0625 183.835938 94.578125 186.226562 93.058594 188.597656 C 92.078125 190.125 91.0625 191.636719 90.160156 193.207031 C 86.929688 198.816406 85.550781 205.101562 83.753906 211.222656 C 83.339844 212.625 83.355469 214.160156 83.222656 215.640625 C 83.089844 217.144531 83.582031 218.046875 85.257812 218.496094 C 87.164062 219 87.761719 220.34375 87.449219 222.304688 C 87.066406 224.761719 86.613281 227.210938 86.25 229.671875 C 85.753906 233.023438 85.230469 236.378906 84.882812 239.75 C 84.542969 243.011719 84.414062 246.300781 84.191406 249.578125 C 84.015625 249.578125 83.84375 249.578125 83.671875 249.578125 C 83.570312 246.386719 83.46875 243.199219 83.363281 240.007812 C 84.679688 237.464844 82.457031 235.34375 82.445312 232.882812 C 81.375 234.921875 80.453125 236.960938 79.929688 239.25 C 79.359375 237.863281 78.835938 236.488281 78.75 235.089844 C 78.648438 233.546875 78.949219 231.976562 79.066406 230.53125 C 76.527344 229.003906 75.46875 229.195312 74.871094 231.3125 C 73.976562 234.484375 73.953125 237.738281 74.851562 240.898438 C 75.292969 242.457031 75.34375 243.925781 75.269531 245.503906 C 75.171875 247.621094 75.253906 249.761719 75.40625 251.878906 C 75.613281 254.742188 76.503906 257.554688 75.921875 260.484375 C 75.78125 261.183594 75.832031 262.015625 76.078125 262.679688 C 76.984375 265.152344 78.019531 267.578125 78.984375 270.035156 C 79.121094 270.378906 79.222656 270.792969 79.160156 271.140625 C 79.09375 271.488281 78.046875 270.734375 78.351562 271.730469 C 78.488281 272.175781 78.71875 272.59375 78.890625 272.996094 C 80.648438 272.753906 80.28125 271.476562 80.40625 270.351562 C 80.785156 271.40625 81.0625 272.441406 80.949219 273.429688 C 80.589844 276.53125 80.542969 276.523438 81.476562 279.425781 C 81.730469 280.214844 81.84375 281.046875 82.109375 281.832031 C 82.660156 283.476562 83.242188 285.113281 83.867188 286.726562 C 84.90625 289.421875 86.019531 292.03125 87.738281 294.449219 C 88.960938 296.164062 89.460938 298.425781 90.753906 300.210938 C 91.230469 300.871094 91.605469 301.605469 92.019531 302.308594 C 91.976562 301.546875 91.929688 300.785156 91.882812 299.996094 C 93.457031 301.179688 95.417969 304.746094 96.417969 308.242188 C 96.070312 308.363281 95.714844 308.480469 95.199219 308.65625 C 96.355469 310.671875 97.339844 312.683594 98.589844 314.511719 C 100.601562 317.449219 102.710938 320.324219 104.921875 323.113281 C 106.203125 324.726562 107.640625 326.265625 109.222656 327.574219 C 111.183594 329.1875 114.164062 328.378906 116.132812 330.1875 C 116.269531 330.3125 116.640625 330.28125 116.851562 330.199219 C 119.121094 329.296875 120.796875 330.492188 122.570312 331.65625 C 130.808594 337.066406 139.449219 341.605469 149.265625 343.441406 C 152.109375 343.972656 154.941406 344.5625 157.800781 345 C 159.992188 345.339844 162.21875 345.4375 164.421875 345.722656 C 166.144531 345.945312 167.863281 346.578125 169.570312 346.527344 C 176.238281 346.332031 182.898438 345.96875 189.558594 345.597656 C 192.179688 345.453125 194.628906 344.667969 197.140625 343.824219 C 201.332031 342.425781 205.761719 341.738281 210.097656 340.785156 C 211.050781 340.578125 212.03125 340.507812 212.996094 340.375 C 213.058594 340.503906 213.121094 340.632812 213.183594 340.757812 C 212.710938 341.15625 212.238281 341.554688 211.625 342.070312 C 212.390625 342.0625 212.902344 342.128906 213.378906 342.039062 C 218.25 341.125 223.113281 340.1875 227.972656 339.238281 C 228.582031 339.121094 228.726562 338.699219 228.492188 338.152344 C 227.375 338.261719 226.242188 338.304688 225.144531 338.5 C 223.363281 338.816406 221.546875 339.074219 219.847656 339.65625 C 218.570312 340.089844 217.394531 340.34375 215.785156 339.859375 C 218.019531 338.945312 219.949219 337.777344 222.023438 337.386719 C 225.015625 336.820312 227.582031 335.347656 230.289062 334.191406 C 233.296875 332.910156 236.25 331.449219 239.074219 329.804688 C 241.46875 328.40625 243.71875 326.726562 245.886719 324.988281 C 246.605469 324.414062 247.207031 323.914062 248.128906 323.667969 C 250.019531 323.160156 251.222656 321.605469 252.617188 320.359375 C 252.921875 320.089844 253.074219 319.59375 253.40625 319.417969 C 257.550781 317.210938 259.503906 313.09375 262.042969 309.503906 C 262.695312 308.582031 263.117188 307.496094 263.699219 306.371094 C 263.152344 306.027344 262.757812 305.773438 262.117188 305.367188 C 263.957031 304.847656 262.011719 302.722656 263.789062 302.058594 C 264.199219 301.90625 264.609375 301.429688 264.78125 301.007812 C 266.59375 296.46875 270.980469 293.789062 273.261719 289.425781 C 273.277344 289.757812 273.402344 290.128906 273.296875 290.414062 C 272.445312 292.660156 271.511719 294.878906 270.6875 297.132812 C 270.484375 297.675781 270.539062 298.3125 270.496094 298.914062 C 272.574219 296.640625 273.859375 293.964844 274.632812 290.984375 C 275.351562 288.203125 275.851562 285.316406 277.5 282.878906 C 279.425781 280.03125 280.6875 276.890625 281.710938 273.644531 C 281.9375 272.941406 281.941406 272.167969 282.027344 271.421875 C 281.585938 272.113281 281.128906 272.792969 280.71875 273.503906 C 280.367188 274.109375 280.078125 274.746094 279.550781 275.273438 C 279.503906 272.46875 281.210938 270.390625 282.351562 267.78125 C 282.800781 268.222656 283.058594 268.480469 283.308594 268.726562 C 284.710938 267.578125 284.761719 265.863281 285.152344 264.285156 C 285.546875 262.6875 285.933594 261.085938 286.371094 259.496094 C 287.554688 255.191406 288.710938 250.890625 288.457031 246.351562 C 288.394531 245.210938 288.5625 244.058594 288.554688 242.914062 C 288.550781 241.769531 288.816406 240.414062 288.304688 239.539062 C 287.703125 238.507812 287.941406 237.773438 288.046875 236.785156 C 288.183594 235.515625 287.859375 234.191406 287.734375 232.890625 C 285.574219 231.984375 286.519531 230.101562 286.34375 228.550781 C 285.945312 225.058594 286 221.480469 284.871094 218.121094 C 283.660156 214.519531 282.269531 210.964844 280.785156 207.46875 C 279.988281 205.59375 278.570312 203.96875 277.886719 202.066406 C 275.949219 196.703125 273.011719 191.890625 269.945312 187.171875 C 267.605469 183.574219 264.867188 180.238281 262.332031 176.773438 C 259.371094 172.722656 255.773438 169.335938 251.675781 166.472656 C 250.386719 165.574219 249.027344 164.78125 247.726562 163.894531 C 245.148438 162.144531 242.617188 160.320312 240.011719 158.613281 C 238.210938 157.433594 236.105469 156.644531 234.523438 155.242188 C 232.480469 153.4375 230.1875 152.253906 227.78125 151.132812 C 227.195312 150.859375 226.4375 150.128906 226.421875 149.585938 C 226.324219 147.066406 225.527344 144.5 226.722656 142.011719 C 226.996094 141.453125 227.25 140.511719 226.972656 140.132812 C 226.21875 139.085938 226.8125 138.191406 227.015625 137.289062 C 227.261719 136.171875 227.714844 135.097656 228.101562 134.011719 C 228.921875 131.703125 229.792969 129.414062 230.570312 127.089844 C 230.820312 126.34375 230.691406 125.460938 230.96875 124.730469 C 231.953125 122.113281 233.035156 119.53125 234.082031 116.9375 C 233.902344 116.851562 233.722656 116.765625 233.539062 116.679688 C 232.683594 118.128906 231.832031 119.582031 230.976562 121.035156 C 230.816406 120.953125 230.652344 120.871094 230.492188 120.789062 C 231.199219 118.863281 231.753906 116.875 232.820312 115.078125 C 232.921875 114.90625 233.1875 114.828125 233.394531 114.714844 C 232.878906 113.097656 234.1875 111.996094 234.757812 110.804688 C 235.738281 108.753906 235.550781 105.910156 238.261719 104.871094 C 238.304688 104.851562 238.339844 104.699219 238.3125 104.640625 C 237.460938 102.992188 239.367188 102.457031 239.679688 101.269531 C 239.816406 100.738281 240.453125 100.050781 240.289062 99.773438 C 239.59375 98.589844 241.652344 97.773438 240.613281 96.617188 C 240.574219 96.574219 240.988281 95.902344 241.1875 95.90625 C 242.441406 95.925781 242.277344 95.171875 242.320312 94.300781 C 242.351562 93.617188 242.855469 92.960938 243.105469 92.277344 C 243.292969 91.769531 243.414062 91.234375 243.5625 90.710938 C 245.023438 89.496094 245.632812 87.910156 245.480469 86.046875 C 245.457031 85.730469 245.066406 85.441406 244.824219 85.140625 C 244.398438 86.6875 243.972656 88.234375 243.546875 89.78125 C 242.949219 90.332031 242.191406 90.789062 241.785156 91.457031 C 240.417969 93.691406 239.171875 96.003906 237.753906 98.519531 C 237.355469 96.738281 238.402344 95.585938 238.914062 94.304688 C 239.085938 93.875 239.605469 93.484375 239.589844 93.097656 C 239.472656 90.707031 240.292969 88.515625 241.003906 86.332031 C 241.769531 83.976562 242.886719 81.738281 243.789062 79.421875 C 245.054688 76.171875 246.820312 73.253906 249.324219 70.8125 C 249.097656 68.859375 250.421875 67.566406 251.308594 66.082031 C 251.242188 67.886719 250.644531 69.496094 249.589844 70.9375 C 249.554688 71.425781 249.515625 71.917969 249.480469 72.40625 C 249.632812 72.375 249.820312 72.363281 249.863281 72.277344 C 251.464844 68.988281 252.972656 65.65625 254.664062 62.421875 C 255.371094 61.066406 256.453125 59.914062 257.367188 58.667969 C 257.167969 58.515625 256.972656 58.359375 256.773438 58.207031 C 257.132812 57.777344 257.492188 57.347656 257.851562 56.917969 C 257.816406 56.753906 257.703125 56.546875 257.761719 56.441406 C 258.851562 54.550781 259.65625 52.460938 261.46875 51.066406 C 261.847656 50.773438 262.339844 50.492188 262.511719 50.09375 C 263.394531 48.003906 264.667969 46.078125 264.792969 43.667969 C 264.855469 42.570312 265.535156 41.5 265.980469 40.4375 C 266.035156 40.304688 266.363281 40.289062 266.660156 40.191406 C 266.535156 40.9375 266.4375 41.542969 266.335938 42.148438 C 267.199219 41.121094 267.667969 39.988281 267.984375 38.816406 C 268.253906 37.808594 268.085938 36.605469 268.566406 35.742188 C 269.5625 33.953125 269.5 32.140625 269.390625 30.230469 C 269.335938 29.246094 269.5625 28.25 269.652344 27.359375 C 270.308594 27.222656 270.933594 27.09375 271.667969 26.9375 C 271.546875 26.488281 271.53125 26.140625 271.375 25.882812 " fill-opacity="1" fill-rule="nonzero"/></g></g></g></g></g></g><g clip-path="url(#16b6c79567)"><g clip-path="url(#1f44287134)"><g clip-path="url(#7f72ed7138)"><g clip-path="url(#71da4dcb8b)"><path fill="#000000" d="M 264.460938 310.550781 C 263.757812 311.929688 262.6875 313.121094 261.757812 314.382812 C 260.921875 315.507812 260.089844 316.632812 259.1875 317.699219 C 258.550781 318.453125 257.800781 319.109375 257.03125 319.878906 C 256.789062 319.558594 256.617188 319.335938 256.472656 319.144531 C 255.019531 318.914062 256.550781 321.082031 255.066406 320.835938 C 253.691406 323.832031 250.546875 324.722656 248.199219 326.539062 C 244.792969 329.167969 241.082031 331.335938 237.019531 332.855469 C 236.542969 333.035156 235.554688 332.902344 235.835938 334.039062 C 235.878906 334.207031 235.222656 334.660156 234.824219 334.808594 C 233.195312 335.410156 231.519531 335.894531 229.910156 336.539062 C 229.261719 336.796875 228.144531 336.867188 228.53125 338.09375 C 230.917969 337.332031 233.566406 337.257812 235.554688 335.441406 C 235.609375 335.390625 235.714844 335.40625 235.789062 335.371094 C 239.144531 333.851562 242.648438 332.578125 245.816406 330.734375 C 249.449219 328.617188 252.835938 326.0625 256.238281 323.570312 C 260.628906 320.355469 263.722656 316.097656 265.691406 311.03125 C 266.128906 309.894531 266.070312 308.160156 266.851562 307.652344 C 268.199219 306.777344 267.976562 305.40625 268.675781 304.417969 C 269.820312 302.789062 270.46875 301.050781 270.433594 299.0625 C 270.113281 299.375 269.703125 299.640625 269.519531 300.019531 C 267.820312 303.523438 266.234375 307.082031 264.460938 310.550781 " fill-opacity="1" fill-rule="nonzero"/></g></g></g></g><g clip-path="url(#b5f6b1b56f)"><g clip-path="url(#94b9924416)"><g clip-path="url(#6609af355a)"><g clip-path="url(#8bc0905aad)"><path fill="#000000" d="M 270.433594 299.0625 C 270.453125 299.046875 270.472656 299.03125 270.492188 299.011719 C 270.492188 298.980469 270.492188 298.945312 270.496094 298.914062 C 270.476562 298.9375 270.457031 298.960938 270.4375 298.980469 C 270.4375 299.011719 270.433594 299.035156 270.433594 299.0625 " fill-opacity="1" fill-rule="nonzero"/></g></g></g></g><g clip-path="url(#ef29b230d2)"><g clip-path="url(#897f1ce7a0)"><g clip-path="url(#6ce156207f)"><g clip-path="url(#9a7420df51)"><path fill="#000000" d="M 228.546875 338.148438 C 228.539062 338.128906 228.539062 338.113281 228.53125 338.09375 C 228.515625 338.101562 228.496094 338.105469 228.476562 338.113281 L 228.546875 338.148438 " fill-opacity="1" fill-rule="nonzero"/></g></g></g></g><g clip-path="url(#781daeb6cc)"><g clip-path="url(#e09041db30)"><g clip-path="url(#a07eea33f4)"><g clip-path="url(#f928685d8b)"><path fill="#000000" d="M 242.179688 86.199219 C 243.054688 85.828125 243.929688 85.453125 244.808594 85.074219 C 246.070312 81.703125 247.332031 78.332031 248.597656 74.960938 C 248.089844 75.488281 247.488281 75.960938 247.15625 76.582031 C 245.449219 79.761719 243.832031 82.988281 242.179688 86.199219 " fill-opacity="1" fill-rule="nonzero"/></g></g></g></g><g clip-path="url(#ab56d71bb5)"><g clip-path="url(#25540778fa)"><g clip-path="url(#04d09a58c9)"><g clip-path="url(#1f3682219f)"><path fill="#000000" d="M 244.824219 85.082031 C 244.808594 85.09375 244.796875 85.105469 244.796875 85.105469 C 244.804688 85.117188 244.816406 85.128906 244.824219 85.140625 C 244.832031 85.113281 244.839844 85.085938 244.847656 85.058594 C 244.835938 85.066406 244.820312 85.070312 244.808594 85.074219 C 244.804688 85.085938 244.800781 85.09375 244.796875 85.105469 C 244.796875 85.105469 244.808594 85.09375 244.824219 85.082031 " fill-opacity="1" fill-rule="nonzero"/></g></g></g></g><g clip-path="url(#19fbc7ddbd)"><g clip-path="url(#3baf77064f)"><g clip-path="url(#d682953b41)"><g clip-path="url(#22bb0e643f)"><path fill="#000000" d="M 248.597656 74.960938 C 248.640625 74.917969 248.683594 74.878906 248.722656 74.832031 L 248.648438 74.828125 C 248.628906 74.875 248.613281 74.917969 248.597656 74.960938 " fill-opacity="1" fill-rule="nonzero"/></g></g></g></g><g clip-path="url(#a66f56cf63)"><g clip-path="url(#d91e19cd17)"><g clip-path="url(#b0a8eb3305)"><g clip-path="url(#6c7d3c1777)"><path fill="#000000" d="M 242.171875 86.21875 C 242.171875 86.214844 242.175781 86.207031 242.179688 86.199219 C 242.164062 86.207031 242.148438 86.214844 242.132812 86.21875 L 242.171875 86.21875 " fill-opacity="1" fill-rule="nonzero"/></g></g></g></g><g clip-path="url(#07c26ef502)"><g clip-path="url(#bf9770780f)"><g clip-path="url(#ef146d3fb0)"><g clip-path="url(#95c5773cfa)"><path fill="#000000" d="M 247.765625 81.371094 C 248.003906 81.484375 248.242188 81.59375 248.476562 81.707031 C 248.902344 80.824219 249.328125 79.941406 249.753906 79.054688 C 249.457031 78.921875 249.160156 78.785156 248.863281 78.648438 C 248.324219 79.488281 247.132812 80.066406 247.765625 81.371094 " fill-opacity="1" fill-rule="nonzero"/></g></g></g></g><g clip-path="url(#788add6eee)"><g clip-path="url(#f3b035ea4e)"><g clip-path="url(#c1392a7e07)"><g clip-path="url(#ff92b22f4b)"><path fill="#000000" d="M 233.441406 114.691406 C 233.445312 114.691406 233.410156 114.769531 233.410156 114.769531 C 233.421875 114.757812 233.4375 114.742188 233.453125 114.734375 C 233.449219 114.71875 233.445312 114.707031 233.441406 114.691406 " fill-opacity="1" fill-rule="nonzero"/></g></g></g></g><g clip-path="url(#9bbc962eec)"><g clip-path="url(#34bd53550b)"><g clip-path="url(#ac0b12825e)"><g clip-path="url(#29d0a253af)"><path fill="#000000" d="M 235.0625 113.363281 C 234.460938 113.875 233.953125 114.304688 233.453125 114.734375 C 233.523438 115.058594 233.59375 115.382812 233.691406 115.804688 C 234.398438 115.023438 235.359375 114.566406 235.0625 113.363281 " fill-opacity="1" fill-rule="nonzero"/></g></g></g></g><g clip-path="url(#990436cb3f)"><g clip-path="url(#74bf710ad2)"><g clip-path="url(#9b0ba68e6b)"><g clip-path="url(#288c17eaaf)"><path fill="#000000" d="M 93.078125 304.0625 C 93.230469 303.03125 92.957031 302.523438 92.058594 302.457031 C 91.882812 303.25 92.199219 303.730469 93.078125 304.0625 " fill-opacity="1" fill-rule="nonzero"/></g></g></g></g><g clip-path="url(#d81a272248)"><g clip-path="url(#ec06ca9458)"><g clip-path="url(#1a4a74278a)"><g clip-path="url(#227cf6d458)"><path fill="#000000" d="M 92.027344 302.453125 C 92.039062 302.453125 92.046875 302.453125 92.058594 302.457031 C 92.0625 302.433594 92.0625 302.417969 92.070312 302.394531 C 92.054688 302.367188 92.035156 302.339844 92.019531 302.308594 C 92.023438 302.355469 92.023438 302.402344 92.027344 302.449219 L 92.027344 302.453125 " fill-opacity="1" fill-rule="nonzero"/></g></g></g></g><g clip-path="url(#2b377ec76f)"><g clip-path="url(#f51670a668)"><g clip-path="url(#ea936074dd)"><g clip-path="url(#5427dbcd0f)"><path fill="#000000" d="M 282.085938 271.1875 C 282.476562 270.398438 282.871094 269.605469 283.265625 268.8125 C 282.234375 269.289062 281.902344 270.113281 282.085938 271.1875 " fill-opacity="1" fill-rule="nonzero"/></g></g></g></g><g clip-path="url(#35840bdca6)"><g clip-path="url(#d7d9e3f0c7)"><g clip-path="url(#b5fa2d5164)"><g clip-path="url(#d70d1361a2)"><path fill="#000000" d="M 283.265625 268.8125 C 283.292969 268.796875 283.316406 268.78125 283.347656 268.765625 C 283.335938 268.753906 283.320312 268.742188 283.308594 268.726562 C 283.304688 268.730469 283.304688 268.734375 283.300781 268.734375 C 283.289062 268.761719 283.277344 268.785156 283.265625 268.8125 " fill-opacity="1" fill-rule="nonzero"/></g></g></g></g><g clip-path="url(#16c1a134fb)"><g clip-path="url(#e80db2b0d6)"><g clip-path="url(#ce5347cbde)"><g clip-path="url(#7d5ec59b4d)"><path fill="#000000" d="M 246.222656 84.285156 C 246.390625 84.347656 246.554688 84.414062 246.71875 84.476562 C 246.84375 84.023438 246.96875 83.574219 247.09375 83.125 C 246.96875 83.085938 246.839844 83.050781 246.714844 83.011719 C 246.550781 83.4375 246.386719 83.859375 246.222656 84.285156 " fill-opacity="1" fill-rule="nonzero"/></g></g></g></g><g clip-path="url(#a4fec675d1)"><g clip-path="url(#16e3d11e91)"><g clip-path="url(#730372ae06)"><g clip-path="url(#e65382161e)"><path fill="#000000" d="M 248.691406 74.6875 C 248.917969 73.972656 249.148438 73.257812 249.378906 72.542969 C 248.722656 73.121094 248.496094 73.839844 248.691406 74.6875 " fill-opacity="1" fill-rule="nonzero"/></g></g></g></g><g clip-path="url(#68ecf76458)"><g clip-path="url(#5e9d955ec0)"><g clip-path="url(#336d8bab4b)"><g clip-path="url(#32d5ad4568)"><path fill="#000000" d="M 249.378906 72.542969 C 249.410156 72.511719 249.441406 72.476562 249.480469 72.449219 C 249.480469 72.433594 249.480469 72.421875 249.480469 72.40625 C 249.460938 72.410156 249.433594 72.414062 249.414062 72.421875 C 249.402344 72.460938 249.390625 72.503906 249.378906 72.542969 " fill-opacity="1" fill-rule="nonzero"/></g></g></g></g><g clip-path="url(#fd0a2d8b60)"><g clip-path="url(#e895a2d4d3)"><g clip-path="url(#e9ef161072)"><g clip-path="url(#3df3b6e34d)"><path fill="#000000" d="M 248.722656 74.832031 C 248.710938 74.785156 248.703125 74.738281 248.691406 74.6875 C 248.675781 74.734375 248.664062 74.78125 248.648438 74.828125 L 248.722656 74.832031 " fill-opacity="1" fill-rule="nonzero"/></g></g></g></g><g clip-path="url(#780afa26c6)"><g clip-path="url(#89a0329814)"><g clip-path="url(#c497bb3bf9)"><g clip-path="url(#a96a6d5e1c)"><path fill="#000000" d="M 242.183594 86.222656 C 242.171875 86.21875 242.132812 86.21875 242.132812 86.21875 C 242.152344 86.230469 242.167969 86.238281 242.183594 86.25 C 242.183594 86.242188 242.183594 86.234375 242.183594 86.222656 " fill-opacity="1" fill-rule="nonzero"/></g></g></g></g><g clip-path="url(#2c09980a7e)"><g clip-path="url(#955d90d111)"><g clip-path="url(#73fccc3662)"><g clip-path="url(#9a0fcfb451)"><path fill="#000000" d="M 242.183594 86.25 C 242.226562 86.828125 242.261719 87.40625 242.300781 88.117188 C 243.835938 87.140625 242.910156 86.710938 242.183594 86.25 " fill-opacity="1" fill-rule="nonzero"/></g></g></g></g><g clip-path="url(#e55ea4426b)"><g clip-path="url(#8a0b29a273)"><g clip-path="url(#4ad71499c3)"><g clip-path="url(#8d220c5b7b)"><path fill="#ffc500" d="M 178.480469 215.894531 C 182.777344 210.96875 183.046875 204.277344 183.308594 197.804688 C 183.398438 195.601562 183.480469 193.519531 183.722656 191.558594 C 185.0625 180.773438 192.289062 171.246094 202.378906 166.777344 C 200.445312 173.207031 200.777344 179.917969 203.367188 186.308594 C 203.617188 186.917969 204.222656 187.363281 204.910156 187.441406 C 210.59375 188.101562 215.410156 184.609375 217.179688 178.550781 C 217.339844 178.007812 217.394531 177.605469 217.425781 177.273438 C 217.488281 177.257812 217.5625 177.246094 217.644531 177.230469 L 218.265625 177.105469 C 220.570312 176.632812 223.523438 177.882812 225.355469 179.097656 C 230.261719 182.351562 230.617188 187.765625 230.992188 193.566406 C 231.597656 202.871094 234.640625 208.0625 240.039062 209 C 243.644531 209.621094 247.214844 207.792969 248.652344 204.800781 C 268.414062 222.316406 265.375 252.375 251.9375 273.375 C 238.621094 294.1875 216.085938 309.101562 191.660156 313.269531 C 167.558594 317.382812 143.632812 310.160156 126.019531 293.453125 C 108.714844 277.039062 100.640625 254.5 104.417969 233.160156 C 108.214844 211.695312 122.261719 193.492188 140.753906 184.945312 C 143.839844 183.523438 147.046875 182.367188 150.347656 181.507812 L 150.144531 190.015625 C 150.140625 190.144531 150.101562 190.390625 150.046875 190.738281 C 148.386719 201.808594 150.953125 210.242188 157.675781 215.796875 C 163.707031 220.785156 172.796875 222.417969 178.480469 215.894531 Z M 248.527344 199.738281 C 247.933594 199.285156 247.164062 199.253906 246.503906 199.613281 C 245.816406 200.007812 245.421875 200.792969 245.519531 201.5625 C 245.628906 202.433594 245.246094 203.132812 244.902344 203.5625 C 244.242188 204.390625 243.160156 205 242.136719 205.097656 C 240.125 205.296875 239.097656 204.597656 237.691406 203.050781 C 235.78125 200.949219 235.230469 198.050781 234.941406 195.496094 C 234.808594 194.296875 234.738281 193.085938 234.671875 191.878906 C 234.46875 188.46875 234.265625 184.945312 232.640625 181.695312 C 229.484375 175.382812 222.234375 172.109375 215.003906 173.734375 C 214.03125 173.953125 213.398438 174.820312 213.484375 175.835938 C 213.726562 178.734375 212.296875 181.40625 209.753906 182.804688 C 208.539062 183.464844 207.621094 183.660156 207.003906 183.367188 C 206.222656 182.996094 205.636719 181.714844 205.222656 179.453125 C 204.316406 174.542969 205.046875 169.300781 207.332031 164.292969 C 207.621094 163.660156 207.484375 162.878906 206.980469 162.304688 C 206.5 161.75 205.800781 161.53125 205.152344 161.726562 C 197.542969 164.023438 191.089844 168.542969 186.488281 174.792969 C 181.039062 182.195312 179.886719 190.480469 179.480469 197.609375 C 178.9375 207.054688 176.878906 213.058594 173.359375 215.457031 C 171.261719 216.886719 168.539062 217.070312 165.277344 215.996094 C 157.824219 213.546875 154.195312 207.152344 153.863281 195.921875 L 154.078125 187.671875 L 154.171875 186.351562 C 154.183594 186.167969 154.171875 185.984375 154.128906 185.796875 L 154.304688 179.109375 C 154.320312 178.472656 154.042969 177.851562 153.558594 177.453125 C 153.121094 177.085938 152.550781 176.945312 151.996094 177.0625 C 129.464844 181.871094 110.691406 199.453125 103 222.949219 C 95.5 245.863281 101.019531 271.082031 117.773438 290.414062 C 134.273438 309.453125 158.957031 319.800781 183.796875 318.089844 C 194.757812 317.335938 205.503906 314.496094 215.484375 309.882812 C 230.050781 303.152344 242.976562 292.648438 252.511719 279.359375 C 269.6875 255.421875 274.128906 219.378906 248.527344 199.738281 " fill-opacity="1" fill-rule="nonzero"/></g></g></g></g><g clip-path="url(#39001ecd56)"><g clip-path="url(#23c6426af1)"><g clip-path="url(#cfc7186059)"><g clip-path="url(#d5287922d1)"><path fill="#ffc500" d="M 204.175781 128.058594 C 199.144531 146.15625 176.21875 153.589844 174.957031 173.476562 C 174.875 174.769531 176.1875 175.710938 177.058594 173.867188 C 179.921875 167.785156 187.007812 165.730469 192.414062 162.660156 C 196.816406 160.160156 201.023438 157.113281 203.992188 152.945312 C 209.1875 145.652344 209.617188 135.984375 205.847656 127.992188 C 205.535156 127.328125 204.394531 127.273438 204.175781 128.058594 " fill-opacity="1" fill-rule="nonzero"/></g></g></g></g><g clip-path="url(#56c65bf838)"><g clip-path="url(#89cd54a188)"><g clip-path="url(#fd64c3a7e5)"><g clip-path="url(#16fe9d8db6)"><path fill="#ffc500" d="M 180.632812 133.449219 C 174.820312 144.863281 158.785156 149.792969 157.046875 163.566406 C 155.21875 178.070312 170.820312 187.792969 170.03125 202.15625 C 169.988281 202.992188 170.925781 203.488281 171.585938 202.972656 C 176.109375 199.433594 176.433594 193.441406 174.683594 188.308594 C 173.410156 184.578125 171.164062 181.269531 169.671875 177.640625 C 167.03125 171.21875 168.613281 164.855469 171.609375 158.378906 C 175.398438 150.1875 181.191406 143.050781 182.492188 133.875 C 182.65625 132.707031 181.09375 132.546875 180.632812 133.449219 " fill-opacity="1" fill-rule="nonzero"/></g></g></g></g><g clip-path="url(#aedbe24eda)"><g clip-path="url(#0d90dda84d)"><g clip-path="url(#3b77619356)"><g clip-path="url(#f99b8b980d)"><path fill="#ffc500" d="M 98.527344 185.15625 C 96.78125 195.550781 89.308594 203.171875 83.578125 211.550781 C 78.175781 219.449219 74.105469 228.402344 72.78125 237.945312 C 71.464844 247.429688 73.019531 257.5 78.050781 265.742188 C 83.671875 274.949219 93.046875 280.785156 102.023438 286.285156 C 102.714844 286.710938 103.617188 286.039062 103.464844 285.351562 C 103.640625 285.066406 103.652344 284.703125 103.324219 284.394531 C 89.484375 271.460938 82.726562 251.417969 86.375 232.738281 C 89.550781 216.441406 101.28125 202.492188 100.285156 185.339844 C 100.285156 185.335938 100.289062 185.332031 100.289062 185.328125 L 100.285156 185.328125 C 100.28125 185.25 100.285156 185.175781 100.28125 185.101562 C 100.210938 184.042969 98.683594 184.226562 98.527344 185.15625 " fill-opacity="1" fill-rule="nonzero"/></g></g></g></g><g fill="#ff4830" fill-opacity="1"><g transform="translate(136.119675, 257.745053)"><g><path d="M 15.796875 -34.40625 L 25.671875 -37.765625 L 30.671875 -4.90625 L 22.375 -4.21875 L 20.890625 -16.65625 L 7.90625 -15.953125 L 12.15625 -2.40625 L 1.96875 0.640625 L -3.734375 -31.53125 L 6.90625 -34.453125 L 7.65625 -22.375 L 18.28125 -25.28125 Z M 15.796875 -34.40625 "/></g></g></g><g fill="#ff4830" fill-opacity="1"><g transform="translate(168.981288, 251.930804)"><g><path d="M 23.953125 -34.625 L 31.671875 -23.671875 L 30.109375 -9.453125 L 16.953125 -0.40625 L 4.125 -4.59375 L -1.703125 -18.640625 L 2.78125 -30.890625 L 10.546875 -35.203125 Z M 19.375 -10.859375 L 22.453125 -18.890625 L 19.296875 -27.203125 L 13.6875 -28.484375 L 8.875 -25.359375 L 8.640625 -15.265625 L 14.1875 -9.109375 Z M 19.375 -10.859375 "/></g></g></g><g fill="#ff4830" fill-opacity="1"><g transform="translate(205.394158, 245.488227)"><g><path d="M 26.25 -29.578125 L 15.140625 -29.015625 L 20.4375 -4.03125 L 10.9375 -0.859375 L 7.734375 -27.75 L -1.390625 -24.78125 L -4.65625 -32.140625 L 22.9375 -36.296875 Z M 26.25 -29.578125 "/></g></g></g><g fill="#ffffff" fill-opacity="1"><g transform="translate(137.76988, 289.533762)"><g><path d="M 19.375 -15.65625 L 21.40625 -8.234375 L 17.734375 -3.1875 L 8.5 -0.984375 L 0.5 -2.46875 L 3.125 -8.8125 L 12.046875 -7.8125 L 12.78125 -10.015625 L 4.703125 -11.875 L -1.296875 -17.53125 L 0.09375 -23.96875 L 9.015625 -28.328125 L 17.71875 -26.96875 L 15.5625 -20.515625 L 12.140625 -21.8125 L 7.78125 -21.296875 L 8.046875 -18.65625 Z M 19.375 -15.65625 "/></g></g></g><g fill="#ffffff" fill-opacity="1"><g transform="translate(161.428237, 285.347857)"><g><path d="M 21.53125 -27.09375 L 26.546875 -17.390625 L 24.0625 -5.75 L 16.765625 -1.765625 L 11.5 -3.796875 L 13.0625 7.578125 L 3.375 8.59375 L -1.546875 -24.75 L 5.65625 -27.265625 L 6.625 -24.140625 L 13.453125 -28.953125 Z M 15.796875 -9.296875 L 17.484375 -14.34375 L 14.875 -20.890625 L 10.609375 -20.8125 L 8.4375 -18.53125 L 10.625 -9.046875 Z M 15.796875 -9.296875 "/></g></g></g><g fill="#ffffff" fill-opacity="1"><g transform="translate(191.188743, 280.082291)"><g><path d="M 17.578125 -27.515625 L 24.375 -21.484375 L 24.953125 -9.109375 L 14.78125 -1.640625 L 5.359375 -2.921875 L -1.25 -11.953125 L 0.796875 -22.53125 L 9.234375 -27.96875 Z M 15.5 -9.25 L 16.25 -15.53125 L 11.828125 -21.234375 L 8.96875 -19.84375 L 7.5 -16.484375 L 9.671875 -9.8125 Z M 15.5 -9.25 "/></g></g></g><g fill="#ffffff" fill-opacity="1"><g transform="translate(219.698808, 275.037968)"><g><path d="M 19.421875 -10.34375 L 21.734375 -4.0625 L 14.53125 -1.546875 L 6.59375 -3.28125 L 1.765625 -19.453125 L -2.546875 -18.125 L -3.015625 -25.515625 L 1.734375 -25.78125 L 1.234375 -33.515625 L 8.765625 -33.375 L 10.796875 -27.3125 L 16.28125 -29.046875 L 16.6875 -21.734375 L 10.953125 -20.3125 L 13.859375 -10.65625 L 15.421875 -8.859375 Z M 19.421875 -10.34375 "/></g></g></g><g fill="#000000" fill-opacity="1"><g transform="translate(91.843386, 181.419279)"><g><path d="M 4.765625 -19.3125 L 9.640625 -15.546875 L 9.75 -10.609375 L 4.921875 -4.71875 L -0.859375 -1.8125 L -2.265625 -7.109375 L 3.875 -10.78125 L 3.296875 -12.515625 L -2.734375 -9.84375 L -9.28125 -10.515625 L -11.515625 -15.28125 L -7.9375 -22.359375 L -1.734375 -25.703125 L 0 -20.546875 L -2.796875 -19.734375 L -5.328125 -17.296875 L -3.875 -15.75 Z M 4.765625 -19.3125 "/></g></g></g><g fill="#000000" fill-opacity="1"><g transform="translate(104.488819, 167.721011)"><g><path d="M 9.953125 -14.484375 L 13.90625 -10.859375 L 9.734375 -6.453125 L 3.453125 -4.75 L -5.90625 -14.4375 L -8.46875 -11.921875 L -11.546875 -16.96875 L -8.265625 -18.90625 L -11.453125 -24.1875 L -6.09375 -26.875 L -2.390625 -23.3125 L 0.828125 -26.5625 L 3.8125 -21.546875 L 0.28125 -18.421875 L 5.890625 -12.65625 L 7.640625 -11.953125 Z M 9.953125 -14.484375 "/></g></g></g><g fill="#000000" fill-opacity="1"><g transform="translate(118.766964, 156.682609)"><g><path d="M 3.8125 -25.640625 L 7.390625 -26.140625 L 7.78125 -20.203125 L 4.71875 -19.21875 L 2.546875 -15.046875 L 8.8125 -4.046875 L 1.375 -0.78125 L -7.078125 -18.5 L -1.75 -21.9375 L -0.484375 -18.765625 L 0.671875 -22.359375 Z M 3.8125 -25.640625 "/></g></g></g><g fill="#000000" fill-opacity="1"><g transform="translate(134.887711, 147.956393)"><g><path d="M 16.609375 -17.75 L 16.921875 -14 L 4.453125 -10.53125 L 7.765625 -8.296875 L 12.3125 -9.140625 L 14.875 -11.28125 L 17.8125 -7.046875 L 11.21875 -3.125 L 1.703125 -4.234375 L -2.0625 -9.71875 L -2.359375 -17.234375 L 2.984375 -22.984375 L 10.171875 -23.875 Z M 3.59375 -14.25 L 9.984375 -17.09375 L 6.46875 -18.890625 L 2.890625 -16.5 Z M 3.59375 -14.25 "/></g></g></g><g fill="#000000" fill-opacity="1"><g transform="translate(154.954594, 141.603992)"><g><path d="M 19.71875 -14.21875 L 19.3125 -10.453125 L 6.390625 -9.46875 L 9.21875 -6.625 L 13.859375 -6.59375 L 16.765625 -8.1875 L 18.84375 -3.46875 L 11.609375 -0.890625 L 2.484375 -3.828125 L -0.125 -9.921875 L 1.015625 -17.375 L 7.359375 -21.96875 L 14.609375 -21.453125 Z M 6.28125 -13.28125 L 13.09375 -14.84375 L 10 -17.28125 L 6.015625 -15.625 Z M 6.28125 -13.28125 "/></g></g></g><g fill="#000000" fill-opacity="1"><g transform="translate(176.047371, 139.407713)"><g><path d="M 17.0625 -4.203125 L 17.609375 1.140625 L 11.546875 1.65625 L 5.75 -1.25 L 5.171875 -14.703125 L 1.59375 -14.53125 L 2.671875 -20.34375 L 6.40625 -19.625 L 7.53125 -25.6875 L 13.3125 -24.125 L 13.71875 -19 L 18.28125 -19.265625 L 17.171875 -13.546875 L 12.46875 -13.578125 L 12.8125 -5.53125 L 13.671875 -3.84375 Z M 17.0625 -4.203125 "/></g></g></g><g fill="#000000" fill-opacity="1"><g transform="translate(233.92383, 143.893754)"><g><path d="M 16.0625 4.515625 L 14.046875 9.171875 L 8.78125 6.78125 L 5.328125 1.65625 L 11.171875 -9.734375 L 8.125 -11.265625 L 11.734375 -15.5625 L 14.46875 -13.21875 L 18.25 -17.71875 L 22.296875 -13.71875 L 20.21875 -9.28125 L 24.140625 -7.375 L 20.53125 -3.171875 L 16.640625 -5.375 L 13.1875 1.421875 L 13.09375 3.21875 Z M 16.0625 4.515625 "/></g></g></g><g fill="#000000" fill-opacity="1"><g transform="translate(249.69609, 154.269012)"><g><path d="M 23.90625 5.25 L 15.109375 15.25 L 10.0625 9.4375 L 18.8125 -0.0625 L 16.921875 -2.625 L 14.328125 -2.578125 L 6.609375 6.203125 L 0.8125 1.375 L 19.796875 -16.609375 L 24.890625 -13.0625 L 17.46875 -6.125 L 22.828125 -5.046875 L 26.1875 -0.890625 Z M 23.90625 5.25 "/></g></g></g><g fill="#000000" fill-opacity="1"><g transform="translate(266.631808, 170.941924)"><g><path d="M 24.40625 5.8125 L 12.34375 15.90625 L 7.859375 10.90625 L 9.6875 9.28125 L 3.609375 4.25 L 4.296875 -1.75 L 10.21875 -3.921875 L 18.4375 2.234375 L 18.53125 -0.90625 L 13.515625 -4.890625 L 15.53125 -9.5 L 24.515625 -1.71875 Z M 12 5.90625 L 14.609375 4.671875 L 11.140625 1.953125 L 9.296875 3.609375 Z M 12 5.90625 "/></g></g></g><g fill="#000000" fill-opacity="1"><g transform="translate(279.151843, 189.970132)"><g><path d="M 18.359375 -6.3125 L 21.484375 -1.484375 L 3.875 8.0625 L 0.875 1.203125 Z M 25.4375 -2.140625 L 21.8125 -4.90625 L 21.546875 -8.390625 L 25.140625 -10.140625 L 28.71875 -4.953125 Z M 25.4375 -2.140625 "/></g></g></g><g fill="#000000" fill-opacity="1"><g transform="translate(284.566791, 201.015853)"><g/></g></g><g fill="#000000" fill-opacity="1"><g transform="translate(289.668397, 215.758903)"><g><path d="M 23.84375 8.5 L 22.09375 6.96875 L 20.03125 7.328125 L 21.5 10.9375 L 16.21875 12.203125 L 15.90625 7.640625 L 1.53125 11.25 L 0.453125 3.640625 L 14.40625 1.59375 L 13.640625 -1.09375 L 18.59375 -3.140625 L 19.125 0.21875 L 26.140625 1.703125 L 28.6875 5.96875 L 28.9375 11.03125 L 23.578125 12.09375 Z M 23.84375 8.5 "/></g></g></g><g fill="#000000" fill-opacity="1"><g transform="translate(293.145434, 232.490809)"><g><path d="M 18.625 16.328125 L 13.34375 20.71875 L 3.984375 19.765625 L -0.46875 11.265625 L 1.578125 4.359375 L 9.109375 0.4375 L 16.8125 3.171875 L 19.90625 10.109375 Z M 5.171875 12.671875 L 9.78125 13.9375 L 14.578125 11.296875 L 13.859375 9 L 11.515625 7.5 L 6.25 8.375 Z M 5.171875 12.671875 "/></g></g></g><g fill="#000000" fill-opacity="1"><g transform="translate(293.598862, 255.527674)"><g><path d="M 15.09375 19.625 L 9.046875 22.90625 L 0.0625 20.140625 L -2.640625 10.953125 L 0.703125 4.578125 L 8.84375 2.1875 L 15.859375 6.390625 L 17.546875 13.796875 Z M 2.59375 13.4375 L 6.875 15.578125 L 12.109375 13.90625 L 11.84375 11.515625 L 9.828125 9.609375 L 4.5 9.421875 Z M 2.59375 13.4375 "/></g></g></g><g fill="#000000" fill-opacity="1"><g transform="translate(289.617053, 278.189015)"><g><path d="M 18.171875 29.015625 L -7.140625 20.203125 L -5.71875 14.5625 L -3.3125 14.140625 L -4.234375 10.75 L -2.03125 5.125 L 4.96875 3.046875 L 13.390625 7.109375 L 15.59375 15.34375 L 11.71875 20 L 19.875 22.390625 Z M 0.578125 15.359375 L 7.515625 18.484375 L 9.59375 14.296875 L 5.171875 10.46875 L 0.625 11.78125 Z M 0.578125 15.359375 "/></g></g></g></svg>